<mxfile host="Electron" modified="2023-09-07T08:12:14.496Z" agent="Mozilla/5.0 (Windows NT 10.0; Win64; x64) AppleWebKit/537.36 (KHTML, like Gecko) draw.io/21.6.8 Chrome/114.0.5735.289 Electron/25.5.0 Safari/537.36" etag="oajWBzTl55pym5Uc-kqp" version="21.6.8" type="device">
  <diagram name="Страница — 1" id="FgeMatMDB0y88n2d6bx-">
    <mxGraphModel dx="1098" dy="820" grid="1" gridSize="10" guides="1" tooltips="1" connect="1" arrows="1" fold="1" page="1" pageScale="1" pageWidth="827" pageHeight="1169" math="0" shadow="0">
      <root>
        <mxCell id="0" />
        <mxCell id="1" parent="0" />
        <mxCell id="6VW5goYG0_r4yorX1Oxv-11" value="Средства передвижения" style="swimlane;fontStyle=1;align=center;verticalAlign=top;childLayout=stackLayout;horizontal=1;startSize=26;horizontalStack=0;resizeParent=1;resizeParentMax=0;resizeLast=0;collapsible=1;marginBottom=0;whiteSpace=wrap;html=1;" parent="1" vertex="1">
          <mxGeometry x="480" y="170" width="206" height="210" as="geometry" />
        </mxCell>
        <mxCell id="6VW5goYG0_r4yorX1Oxv-12" value="Скорость" style="text;strokeColor=none;fillColor=none;align=left;verticalAlign=top;spacingLeft=4;spacingRight=4;overflow=hidden;rotatable=0;points=[[0,0.5],[1,0.5]];portConstraint=eastwest;whiteSpace=wrap;html=1;" parent="6VW5goYG0_r4yorX1Oxv-11" vertex="1">
          <mxGeometry y="26" width="206" height="26" as="geometry" />
        </mxCell>
        <mxCell id="6VW5goYG0_r4yorX1Oxv-15" value="Расход топлива" style="text;strokeColor=none;fillColor=none;align=left;verticalAlign=top;spacingLeft=4;spacingRight=4;overflow=hidden;rotatable=0;points=[[0,0.5],[1,0.5]];portConstraint=eastwest;whiteSpace=wrap;html=1;" parent="6VW5goYG0_r4yorX1Oxv-11" vertex="1">
          <mxGeometry y="52" width="206" height="26" as="geometry" />
        </mxCell>
        <mxCell id="6VW5goYG0_r4yorX1Oxv-16" value="Наименование производителя" style="text;strokeColor=none;fillColor=none;align=left;verticalAlign=top;spacingLeft=4;spacingRight=4;overflow=hidden;rotatable=0;points=[[0,0.5],[1,0.5]];portConstraint=eastwest;whiteSpace=wrap;html=1;" parent="6VW5goYG0_r4yorX1Oxv-11" vertex="1">
          <mxGeometry y="78" width="206" height="26" as="geometry" />
        </mxCell>
        <mxCell id="6VW5goYG0_r4yorX1Oxv-17" value="Год выпуска&lt;br&gt;" style="text;strokeColor=none;fillColor=none;align=left;verticalAlign=top;spacingLeft=4;spacingRight=4;overflow=hidden;rotatable=0;points=[[0,0.5],[1,0.5]];portConstraint=eastwest;whiteSpace=wrap;html=1;" parent="6VW5goYG0_r4yorX1Oxv-11" vertex="1">
          <mxGeometry y="104" width="206" height="26" as="geometry" />
        </mxCell>
        <mxCell id="6VW5goYG0_r4yorX1Oxv-13" value="" style="line;strokeWidth=1;fillColor=none;align=left;verticalAlign=middle;spacingTop=-1;spacingLeft=3;spacingRight=3;rotatable=0;labelPosition=right;points=[];portConstraint=eastwest;strokeColor=inherit;" parent="6VW5goYG0_r4yorX1Oxv-11" vertex="1">
          <mxGeometry y="130" width="206" height="8" as="geometry" />
        </mxCell>
        <mxCell id="6VW5goYG0_r4yorX1Oxv-14" value="Определение срока службы ()" style="text;strokeColor=none;fillColor=none;align=left;verticalAlign=top;spacingLeft=4;spacingRight=4;overflow=hidden;rotatable=0;points=[[0,0.5],[1,0.5]];portConstraint=eastwest;whiteSpace=wrap;html=1;" parent="6VW5goYG0_r4yorX1Oxv-11" vertex="1">
          <mxGeometry y="138" width="206" height="26" as="geometry" />
        </mxCell>
        <mxCell id="6VW5goYG0_r4yorX1Oxv-19" value="Вывод на экран всех данных display_info ()" style="text;strokeColor=none;fillColor=none;align=left;verticalAlign=top;spacingLeft=4;spacingRight=4;overflow=hidden;rotatable=0;points=[[0,0.5],[1,0.5]];portConstraint=eastwest;whiteSpace=wrap;html=1;" parent="6VW5goYG0_r4yorX1Oxv-11" vertex="1">
          <mxGeometry y="164" width="206" height="46" as="geometry" />
        </mxCell>
        <mxCell id="6VW5goYG0_r4yorX1Oxv-37" style="edgeStyle=orthogonalEdgeStyle;rounded=0;orthogonalLoop=1;jettySize=auto;html=1;exitX=0.5;exitY=0;exitDx=0;exitDy=0;endArrow=none;endFill=0;" parent="1" source="6VW5goYG0_r4yorX1Oxv-20" edge="1">
          <mxGeometry relative="1" as="geometry">
            <mxPoint x="380" y="400" as="targetPoint" />
          </mxGeometry>
        </mxCell>
        <mxCell id="6VW5goYG0_r4yorX1Oxv-20" value="Машина" style="swimlane;fontStyle=1;align=center;verticalAlign=top;childLayout=stackLayout;horizontal=1;startSize=26;horizontalStack=0;resizeParent=1;resizeParentMax=0;resizeLast=0;collapsible=1;marginBottom=0;whiteSpace=wrap;html=1;" parent="1" vertex="1">
          <mxGeometry x="100" y="480" width="160" height="100" as="geometry" />
        </mxCell>
        <mxCell id="6VW5goYG0_r4yorX1Oxv-21" value="Объем двигателя" style="text;strokeColor=none;fillColor=none;align=left;verticalAlign=top;spacingLeft=4;spacingRight=4;overflow=hidden;rotatable=0;points=[[0,0.5],[1,0.5]];portConstraint=eastwest;whiteSpace=wrap;html=1;" parent="6VW5goYG0_r4yorX1Oxv-20" vertex="1">
          <mxGeometry y="26" width="160" height="26" as="geometry" />
        </mxCell>
        <mxCell id="6VW5goYG0_r4yorX1Oxv-22" value="" style="line;strokeWidth=1;fillColor=none;align=left;verticalAlign=middle;spacingTop=-1;spacingLeft=3;spacingRight=3;rotatable=0;labelPosition=right;points=[];portConstraint=eastwest;strokeColor=inherit;" parent="6VW5goYG0_r4yorX1Oxv-20" vertex="1">
          <mxGeometry y="52" width="160" height="8" as="geometry" />
        </mxCell>
        <mxCell id="6VW5goYG0_r4yorX1Oxv-23" value="Переопределение метода &quot;display_info&quot;" style="text;strokeColor=none;fillColor=none;align=left;verticalAlign=top;spacingLeft=4;spacingRight=4;overflow=hidden;rotatable=0;points=[[0,0.5],[1,0.5]];portConstraint=eastwest;whiteSpace=wrap;html=1;" parent="6VW5goYG0_r4yorX1Oxv-20" vertex="1">
          <mxGeometry y="60" width="160" height="40" as="geometry" />
        </mxCell>
        <mxCell id="6VW5goYG0_r4yorX1Oxv-35" style="edgeStyle=orthogonalEdgeStyle;rounded=0;orthogonalLoop=1;jettySize=auto;html=1;exitX=0.5;exitY=0;exitDx=0;exitDy=0;endArrow=block;endFill=0;" parent="1" source="6VW5goYG0_r4yorX1Oxv-24" target="6VW5goYG0_r4yorX1Oxv-12" edge="1">
          <mxGeometry relative="1" as="geometry" />
        </mxCell>
        <mxCell id="6VW5goYG0_r4yorX1Oxv-24" value="Корабль" style="swimlane;fontStyle=1;align=center;verticalAlign=top;childLayout=stackLayout;horizontal=1;startSize=26;horizontalStack=0;resizeParent=1;resizeParentMax=0;resizeLast=0;collapsible=1;marginBottom=0;whiteSpace=wrap;html=1;" parent="1" vertex="1">
          <mxGeometry x="280" y="480" width="200" height="130" as="geometry" />
        </mxCell>
        <mxCell id="6VW5goYG0_r4yorX1Oxv-25" value="Количество посадочных мест" style="text;strokeColor=none;fillColor=none;align=left;verticalAlign=top;spacingLeft=4;spacingRight=4;overflow=hidden;rotatable=0;points=[[0,0.5],[1,0.5]];portConstraint=eastwest;whiteSpace=wrap;html=1;" parent="6VW5goYG0_r4yorX1Oxv-24" vertex="1">
          <mxGeometry y="26" width="200" height="26" as="geometry" />
        </mxCell>
        <mxCell id="6VW5goYG0_r4yorX1Oxv-34" value="Водоизмещение" style="text;strokeColor=none;fillColor=none;align=left;verticalAlign=top;spacingLeft=4;spacingRight=4;overflow=hidden;rotatable=0;points=[[0,0.5],[1,0.5]];portConstraint=eastwest;whiteSpace=wrap;html=1;" parent="6VW5goYG0_r4yorX1Oxv-24" vertex="1">
          <mxGeometry y="52" width="200" height="26" as="geometry" />
        </mxCell>
        <mxCell id="6VW5goYG0_r4yorX1Oxv-26" value="" style="line;strokeWidth=1;fillColor=none;align=left;verticalAlign=middle;spacingTop=-1;spacingLeft=3;spacingRight=3;rotatable=0;labelPosition=right;points=[];portConstraint=eastwest;strokeColor=inherit;" parent="6VW5goYG0_r4yorX1Oxv-24" vertex="1">
          <mxGeometry y="78" width="200" height="8" as="geometry" />
        </mxCell>
        <mxCell id="6VW5goYG0_r4yorX1Oxv-27" value="Переопределение метода &quot;display_info&quot;" style="text;strokeColor=none;fillColor=none;align=left;verticalAlign=top;spacingLeft=4;spacingRight=4;overflow=hidden;rotatable=0;points=[[0,0.5],[1,0.5]];portConstraint=eastwest;whiteSpace=wrap;html=1;" parent="6VW5goYG0_r4yorX1Oxv-24" vertex="1">
          <mxGeometry y="86" width="200" height="44" as="geometry" />
        </mxCell>
        <mxCell id="6VW5goYG0_r4yorX1Oxv-36" style="edgeStyle=orthogonalEdgeStyle;rounded=0;orthogonalLoop=1;jettySize=auto;html=1;exitX=0.5;exitY=0;exitDx=0;exitDy=0;endArrow=none;endFill=0;" parent="1" source="6VW5goYG0_r4yorX1Oxv-28" edge="1">
          <mxGeometry relative="1" as="geometry">
            <mxPoint x="380" y="390" as="targetPoint" />
            <Array as="points">
              <mxPoint x="620" y="440" />
              <mxPoint x="381" y="440" />
              <mxPoint x="381" y="390" />
            </Array>
          </mxGeometry>
        </mxCell>
        <mxCell id="6VW5goYG0_r4yorX1Oxv-28" value="Самолет" style="swimlane;fontStyle=1;align=center;verticalAlign=top;childLayout=stackLayout;horizontal=1;startSize=26;horizontalStack=0;resizeParent=1;resizeParentMax=0;resizeLast=0;collapsible=1;marginBottom=0;whiteSpace=wrap;html=1;" parent="1" vertex="1">
          <mxGeometry x="510" y="480" width="220" height="150" as="geometry" />
        </mxCell>
        <mxCell id="6VW5goYG0_r4yorX1Oxv-29" value="Высота" style="text;strokeColor=none;fillColor=none;align=left;verticalAlign=top;spacingLeft=4;spacingRight=4;overflow=hidden;rotatable=0;points=[[0,0.5],[1,0.5]];portConstraint=eastwest;whiteSpace=wrap;html=1;" parent="6VW5goYG0_r4yorX1Oxv-28" vertex="1">
          <mxGeometry y="26" width="220" height="26" as="geometry" />
        </mxCell>
        <mxCell id="6VW5goYG0_r4yorX1Oxv-32" value="Максимальная дальность полета" style="text;strokeColor=none;fillColor=none;align=left;verticalAlign=top;spacingLeft=4;spacingRight=4;overflow=hidden;rotatable=0;points=[[0,0.5],[1,0.5]];portConstraint=eastwest;whiteSpace=wrap;html=1;" parent="6VW5goYG0_r4yorX1Oxv-28" vertex="1">
          <mxGeometry y="52" width="220" height="26" as="geometry" />
        </mxCell>
        <mxCell id="6VW5goYG0_r4yorX1Oxv-33" value="Количество посадочных мест" style="text;strokeColor=none;fillColor=none;align=left;verticalAlign=top;spacingLeft=4;spacingRight=4;overflow=hidden;rotatable=0;points=[[0,0.5],[1,0.5]];portConstraint=eastwest;whiteSpace=wrap;html=1;" parent="6VW5goYG0_r4yorX1Oxv-28" vertex="1">
          <mxGeometry y="78" width="220" height="26" as="geometry" />
        </mxCell>
        <mxCell id="6VW5goYG0_r4yorX1Oxv-30" value="" style="line;strokeWidth=1;fillColor=none;align=left;verticalAlign=middle;spacingTop=-1;spacingLeft=3;spacingRight=3;rotatable=0;labelPosition=right;points=[];portConstraint=eastwest;strokeColor=inherit;" parent="6VW5goYG0_r4yorX1Oxv-28" vertex="1">
          <mxGeometry y="104" width="220" height="8" as="geometry" />
        </mxCell>
        <mxCell id="6VW5goYG0_r4yorX1Oxv-31" value="Переопределение метода &quot;display_info&quot;" style="text;strokeColor=none;fillColor=none;align=left;verticalAlign=top;spacingLeft=4;spacingRight=4;overflow=hidden;rotatable=0;points=[[0,0.5],[1,0.5]];portConstraint=eastwest;whiteSpace=wrap;html=1;" parent="6VW5goYG0_r4yorX1Oxv-28" vertex="1">
          <mxGeometry y="112" width="220" height="38" as="geometry" />
        </mxCell>
      </root>
    </mxGraphModel>
  </diagram>
</mxfile>
